<svg width="72" height="73" viewBox="0 0 72 73" fill="none" xmlns="http://www.w3.org/2000/svg">
<g clip-path="url(#clip0)">
<path d="M68.8247 45.2836V37.1469C68.8107 34.2641 67.0894 31.6625 64.4401 30.5235C64.4851 30.366 64.5104 30.2028 64.5132 30.0397C64.5132 19.8532 59.0766 10.442 50.2565 5.34875C41.4336 0.255331 30.5659 0.255331 21.7431 5.34875C12.9231 10.4422 7.48634 19.8532 7.48634 30.0397C7.48915 30.2028 7.51446 30.366 7.55946 30.5235C4.91008 31.6625 3.18884 34.2641 3.1748 37.1469V45.2836C3.18887 48.6783 5.5598 51.609 8.87576 52.3318L12.4336 53.094C12.7711 53.1671 13.1114 53.2036 13.4573 53.2036C14.7483 53.2008 15.9858 52.6861 16.897 51.7693C17.8054 50.8524 18.3145 49.6121 18.3088 48.3211V29.9978C18.3088 23.6754 21.681 17.8334 27.1569 14.6726C32.6301 11.5142 39.3746 11.5142 44.8502 14.6726C50.3234 17.8339 53.6954 23.6755 53.6954 29.9978V51.2011C53.6982 54.3764 52.5114 57.4364 50.3654 59.7763C48.2194 62.1162 45.2748 63.5647 42.1106 63.8375C41.2162 60.786 38.2153 58.8566 35.0681 59.3094C31.9209 59.7594 29.5838 62.4566 29.5838 65.6375C29.5838 68.8157 31.9209 71.5129 35.0681 71.9657C38.2153 72.4185 41.2163 70.4891 42.1106 67.4375C45.9188 67.1788 49.5158 65.5897 52.272 62.9516C55.031 60.3106 56.772 56.7866 57.1966 52.9925C57.6326 53.1275 58.0854 53.1978 58.541 53.2035C58.8869 53.2035 59.2272 53.1669 59.5648 53.0938L63.1226 52.3316C66.4385 51.6088 68.8094 48.6782 68.8235 45.2834L68.8247 45.2836ZM35.9999 68.4813C34.8721 68.4813 33.8568 67.8035 33.4265 66.7601C32.9934 65.7194 33.2325 64.5213 34.0284 63.7254C34.8272 62.9266 36.0253 62.6904 37.0659 63.1207C38.1066 63.551 38.7872 64.5691 38.7872 65.6941C38.7872 66.4338 38.4919 67.1426 37.9716 67.6657C37.4484 68.1888 36.7397 68.4813 36 68.4813L35.9999 68.4813ZM14.7096 48.3213C14.7096 48.701 14.538 49.0581 14.2427 49.2973C13.9474 49.5364 13.562 49.6319 13.1908 49.5532L9.63302 48.791V48.7882C7.95679 48.4479 6.75302 46.9713 6.75302 45.2613V37.1469C6.75302 35.4369 7.95679 33.9604 9.63302 33.6173L14.7096 32.5289L14.7096 48.3213ZM35.9999 8.72129C30.5521 8.72692 25.3123 10.8223 21.358 14.5713C17.4036 18.3203 15.0356 23.4388 14.7374 28.8813L11.0952 29.6013C11.2443 20.8065 16.0228 12.7403 23.6671 8.38649C31.3085 4.02992 40.6829 4.02992 48.3271 8.38649C55.9685 12.7403 60.7471 20.8065 60.8962 29.6013L57.254 28.8251C56.9446 23.3941 54.5708 18.2893 50.6193 14.5518C46.6678 10.814 41.4393 8.72993 35.9997 8.72144L35.9999 8.72129ZM65.2247 45.2836C65.2247 46.9936 64.021 48.4674 62.3447 48.8105L58.7869 49.5726C58.4157 49.6458 58.0332 49.5445 57.7407 49.3026C57.451 49.0608 57.2851 48.7008 57.2907 48.3211V32.4811L62.3673 33.5695C64.0435 33.9098 65.2473 35.3863 65.2473 37.0963L65.2247 45.2836Z" fill="#5C2799"/>
<path d="M28.1728 26.6478C25.051 26.6535 22.5197 29.1847 22.514 32.3094C22.514 33.3022 23.3212 34.1094 24.314 34.1094C25.3097 34.1094 26.114 33.3022 26.114 32.3094C26.0803 31.7413 26.2828 31.1872 26.6709 30.7738C27.0619 30.3604 27.6019 30.1269 28.17 30.1269C28.738 30.1269 29.2781 30.3604 29.669 30.7738C30.0571 31.1872 30.2596 31.7413 30.2259 32.3094C30.2259 33.3022 31.0303 34.1094 32.0259 34.1094C33.0187 34.1094 33.8259 33.3022 33.8259 32.3094C33.8202 29.1876 31.2946 26.6563 28.1727 26.6478H28.1728Z" fill="#5C2799"/>
<path d="M41.8247 32.31C41.7909 31.7418 41.9935 31.1878 42.3816 30.7743C42.7697 30.3609 43.3125 30.1275 43.8806 30.1275C44.4487 30.1275 44.9888 30.3609 45.3797 30.7743C45.7678 31.1878 45.9703 31.7419 45.9365 32.31C45.9365 33.3028 46.7409 34.11 47.7365 34.11C48.7293 34.11 49.5365 33.3028 49.5365 32.31C49.59 30.7743 49.019 29.2837 47.9531 28.1784C46.8871 27.073 45.4163 26.4487 43.8806 26.4487C42.345 26.4487 40.8741 27.0731 39.8082 28.1784C38.7422 29.2837 38.1713 30.7743 38.2248 32.31C38.2248 33.3028 39.0319 34.11 40.0248 34.11C41.0204 34.11 41.8248 33.3028 41.8248 32.31H41.8247Z" fill="#5C2799"/>
<path d="M24.1344 39.2284C24.3369 43.3319 26.6431 47.044 30.2375 49.0384C33.8291 51.0353 38.2 51.0353 41.7913 49.0384C45.3857 47.0444 47.692 43.3319 47.8945 39.2284C47.8945 38.7503 47.7061 38.2919 47.3686 37.9544C47.0311 37.6169 46.5726 37.4285 46.0945 37.4285H25.9201C24.9329 37.4369 24.1342 38.2385 24.1342 39.2285L24.1344 39.2284ZM44.123 41.0284C43.2792 44.8225 39.9126 47.5197 36.0259 47.5197C32.139 47.5197 28.7726 44.8225 27.9288 41.0284H44.123Z" fill="#5C2799"/>
</g>
<defs>
<clipPath id="clip0">
<rect width="72" height="72" fill="white" transform="translate(0 0.80127)"/>
</clipPath>
</defs>
</svg>
