<svg width="86" height="87" viewBox="0 0 86 87" fill="none" xmlns="http://www.w3.org/2000/svg">
<path d="M68.9542 40.5314C68.9542 40.901 68.9374 41.2705 68.9139 41.6468C68.8971 41.8215 68.887 41.9894 68.8635 42.1675C68.8635 42.2011 68.803 42.5807 68.8467 42.2851C68.8971 41.9894 68.8131 42.4698 68.8064 42.5135C68.6888 43.219 68.5209 43.9177 68.2958 44.603C68.1883 44.939 68.0438 45.2682 67.933 45.6042C67.849 45.8393 68.1077 45.2178 67.9498 45.5639C67.9162 45.631 67.8893 45.6982 67.8557 45.7654C67.7717 45.9502 67.681 46.1349 67.5869 46.3096C67.2577 46.9479 66.8882 47.5593 66.4783 48.1505C66.438 48.211 66.3943 48.2681 66.3507 48.3252C66.3238 48.3588 66.1491 48.6544 66.2835 48.4193C66.4178 48.1841 66.2432 48.4697 66.2096 48.5134C66.1693 48.5738 66.1155 48.6309 66.0685 48.6813C65.8333 48.9568 65.5914 49.2356 65.3395 49.4943C65.0875 49.7563 64.8188 50.015 64.55 50.2602C64.4425 50.361 64.3317 50.4517 64.2208 50.5458C64.1368 50.613 64.0528 50.6869 63.9689 50.7541C63.942 50.7809 63.9084 50.7944 63.8849 50.8212C63.7438 50.9287 63.7673 50.9153 63.9588 50.7608C63.9252 50.8616 63.6396 50.9959 63.5557 51.0564C63.4213 51.1505 63.2869 51.2412 63.1425 51.3319C62.8334 51.5334 62.521 51.7283 62.2018 51.903C61.8927 52.0709 61.5803 52.2322 61.2611 52.38C61.1771 52.4203 61.0932 52.4539 61.0092 52.4976C60.8244 52.5816 61.0092 52.5715 61.1032 52.4573C61.0192 52.558 60.6497 52.632 60.5321 52.6756C59.8435 52.9276 59.138 53.1191 58.4158 53.2635C58.231 53.2971 58.0395 53.3307 57.8514 53.3643C57.7775 53.371 57.7002 53.3811 57.623 53.3979C58.0261 53.3139 57.8312 53.371 57.7237 53.3811C57.3206 53.4214 56.9175 53.455 56.5076 53.4752C55.7417 53.502 54.9858 53.4584 54.23 53.3811C53.9109 53.3475 54.3241 53.408 54.3308 53.3979C54.2804 53.4248 54.1124 53.3643 54.0452 53.3576C53.8773 53.3307 53.7093 53.2971 53.5413 53.2635C53.1718 53.1896 52.8023 53.1023 52.4395 52.9948C52.0968 52.9007 51.7609 52.7932 51.4249 52.6655C51.2637 52.6051 51.1159 52.548 50.9546 52.4909C50.6019 52.3565 51.2167 52.6185 50.9949 52.5077C50.8774 52.4472 50.7598 52.4069 50.6422 52.3464C50.0106 52.0508 49.3993 51.7081 48.8114 51.3319C48.6602 51.2311 48.509 51.1303 48.3578 51.0228C48.2974 50.9825 48.2403 50.9388 48.1832 50.8951C48.1496 50.8683 47.8539 50.6936 48.0891 50.8279C48.3243 50.9623 48.0387 50.7876 47.995 50.754C47.9346 50.7137 47.8774 50.66 47.8271 50.613C47.6759 50.4853 47.518 50.3509 47.3735 50.2165C46.8428 49.7395 46.3489 49.2256 45.8954 48.6779C45.845 48.6175 45.8013 48.5704 45.7543 48.51C45.7274 48.4764 45.546 48.1807 45.6804 48.4159C45.8148 48.651 45.6401 48.3554 45.6132 48.3218C45.5729 48.2613 45.5292 48.2042 45.4855 48.1471C45.2773 47.8448 45.0723 47.5425 44.8809 47.2233C44.6894 46.9042 44.5113 46.585 44.3434 46.2558C44.2762 46.1214 44.209 45.9871 44.1519 45.8594C44.1015 45.7586 44.0578 45.6578 44.0175 45.5571C43.8764 45.2547 44.1451 45.8863 44.0175 45.5504C43.7655 44.8852 43.5405 44.2133 43.3725 43.5179C43.2885 43.1652 43.2112 42.8125 43.1642 42.4597C43.1575 42.3992 43.097 42.2245 43.1239 42.1741C43.1172 42.1909 43.1743 42.6008 43.1407 42.2749C43.1138 42.0666 43.1004 41.855 43.0802 41.6366C43.0198 40.8808 43.0198 40.1149 43.0869 39.3523C43.1037 39.1608 43.1205 38.966 43.1474 38.7745C43.1541 38.667 43.2213 38.4789 43.1306 38.8753C43.1474 38.8014 43.1575 38.7241 43.1642 38.6468C43.2247 38.2504 43.3053 37.8641 43.3994 37.4711C43.4834 37.1284 43.5841 36.7824 43.695 36.4364C43.7353 36.2953 43.7891 36.1508 43.8361 36.0165C43.8764 35.8989 43.9705 35.4722 44.078 35.395C44.0612 35.4017 43.91 35.7712 44.0376 35.489C44.078 35.4051 44.1115 35.3211 44.1552 35.2371C44.2224 35.0859 44.2963 34.9347 44.3736 34.7937C44.5416 34.4644 44.7162 34.1386 44.9111 33.8262C45.0858 33.5238 45.2806 33.2383 45.4822 32.9527C45.5426 32.8688 45.6737 32.5832 45.7778 32.5496C45.6166 32.6 45.5863 32.7915 45.7509 32.5832C45.8349 32.4824 45.9122 32.3816 45.9928 32.2876C46.4362 31.7568 46.9267 31.2529 47.4441 30.7926C47.6523 30.6079 47.9412 30.2619 48.1999 30.1611C48.1394 30.2014 48.0924 30.2451 48.0319 30.2887C48.0924 30.2484 48.1495 30.2048 48.2066 30.1544C48.2671 30.114 48.3242 30.0704 48.3813 30.0267C48.5493 29.9091 48.7105 29.7983 48.8852 29.6908C49.4899 29.2944 50.1215 28.9517 50.7732 28.6561C50.8404 28.6225 50.9076 28.5956 50.9747 28.562C51.3174 28.4008 50.6993 28.6628 50.9344 28.5788C51.0957 28.5184 51.2435 28.4512 51.4047 28.3941C51.7575 28.2664 52.1102 28.1522 52.473 28.0514C52.8358 27.9506 53.202 27.8599 53.5749 27.7827C53.726 27.7491 53.8772 27.7222 54.0183 27.6987C54.1124 27.6819 54.2031 27.6718 54.3038 27.6584C54.4315 27.6416 54.3778 27.6516 54.1426 27.6752C54.2165 27.6684 54.2938 27.6584 54.371 27.6483C55.1101 27.5643 55.8492 27.5408 56.5882 27.5744C56.9577 27.5912 57.3273 27.6147 57.69 27.6584C57.9521 27.692 57.8244 27.5744 57.6396 27.6516C57.6732 27.6348 57.8479 27.6852 57.8681 27.6852C58.0764 27.7188 58.2813 27.7524 58.4896 27.7927C59.2017 27.9338 59.9173 28.1354 60.5992 28.3907C60.7168 28.431 61.0527 28.4982 61.1199 28.5923C61.1132 28.5755 60.7437 28.4243 61.0259 28.552C61.0931 28.5855 61.1602 28.6124 61.2274 28.646C61.5634 28.7972 61.8926 28.9652 62.2184 29.1432C62.5375 29.3179 62.8567 29.5127 63.1591 29.7143C63.2867 29.7983 63.401 29.8755 63.5219 29.9562C63.616 30.0166 63.6966 30.0838 63.7906 30.1477C63.8242 30.1745 63.8511 30.188 63.8847 30.2148C64.0258 30.3223 64.0023 30.2988 63.8108 30.1477C64.0728 30.2484 64.355 30.5911 64.5667 30.7792C64.8354 31.0211 65.1042 31.2764 65.3561 31.5452C65.598 31.7971 65.8264 32.0558 66.0549 32.3178C66.1489 32.4253 66.3169 32.5698 66.3639 32.7041C66.2464 32.4018 66.2363 32.5362 66.3303 32.6706C66.4043 32.7713 66.4815 32.8788 66.5588 32.9796C66.9619 33.5507 67.3146 34.1554 67.6338 34.7768C67.7178 34.9448 67.795 35.1061 67.8757 35.274C67.9093 35.3412 67.9361 35.4084 67.9697 35.4756C68.0974 35.7611 67.9428 35.3916 67.9294 35.3815C68.0235 35.4487 68.0907 35.7847 68.131 35.9022C68.1982 36.0937 68.2654 36.2886 68.3325 36.4801C68.561 37.1855 68.729 37.8977 68.8432 38.6301C68.8432 38.6468 68.8936 38.8215 68.8768 38.8585C68.9507 38.6737 68.8365 38.5494 68.87 38.8081C68.8868 38.9828 68.9036 39.1508 68.9204 39.3288C68.944 39.7521 68.954 40.1384 68.954 40.5314C68.954 41.4115 69.7267 42.2514 70.6337 42.2111C71.5407 42.1708 72.3134 41.472 72.3134 40.5314C72.2966 37.1956 71.2787 33.8463 69.3235 31.1316C67.3481 28.3937 64.6606 26.3345 61.4961 25.1754C55.1973 22.8575 47.7223 24.9 43.4834 30.097C41.3066 32.7576 40.0166 35.9356 39.7477 39.3617C39.4857 42.6708 40.3121 46.0805 42.0254 48.9189C43.695 51.6904 46.2246 54.0084 49.1875 55.3353C52.3857 56.7731 55.8895 57.1829 59.333 56.4943C65.7997 55.201 71.1072 49.7084 72.0919 43.1746C72.2263 42.2945 72.3103 41.421 72.3203 40.5275C72.3203 39.6473 71.5477 38.8075 70.6407 38.8478C69.7269 38.8848 68.961 39.5835 68.9543 40.5308L68.9542 40.5314Z" fill="#5C2799"/>
<path d="M50.8607 36.7626L54.4082 42.9071L54.9255 43.8031C55.379 44.5886 56.4345 44.8714 57.22 44.4179L62.8786 41.1509C63.6408 40.7108 63.9818 39.6217 63.4934 38.8564C63.005 38.0911 62.0135 37.7713 61.1989 38.2416L55.5403 41.5086L57.8348 42.1234L54.2873 35.979L53.7699 35.0829C53.3299 34.3207 52.2408 33.9797 51.4755 34.4681C50.7118 34.9595 50.3904 35.948 50.8607 36.7626Z" fill="#5C2799"/>
<path d="M53.9941 62.0082V70.1211V74.5823C53.9941 74.8175 53.9202 75.2475 53.9874 75.4726C53.9706 75.4121 54.0815 75.0964 53.9874 75.355C53.9807 75.3819 53.937 75.5633 53.9269 75.5633C53.9 75.5566 54.1352 75.1871 53.9672 75.4625C53.9336 75.523 53.8933 75.5902 53.8597 75.6473C53.7321 75.8757 53.8664 75.5196 53.9269 75.5532C53.9605 75.57 53.7657 75.6809 53.7758 75.7044C53.7354 75.6305 54.0848 75.5129 53.8698 75.6305C53.8295 75.6574 53.7757 75.691 53.7354 75.7044C53.6279 75.7649 53.675 75.738 53.8967 75.6439C53.8967 75.6439 53.6683 75.7111 53.6884 75.7044C53.47 75.7783 53.6951 75.6036 53.806 75.6977H53.6884H53.6548C52.0155 75.6305 50.3626 75.6977 48.7232 75.6977H38.5279H27.4752H19.9905H19.1843H18.9827H18.9424C18.6233 75.7145 19.2783 75.7985 18.8685 75.691C18.4822 75.5902 19.0969 75.8421 18.7408 75.6574C18.6737 75.6238 18.6132 75.5734 18.5494 75.5398C18.3579 75.4323 18.7677 75.7581 18.6233 75.5902C18.5729 75.5297 18.5158 75.4827 18.462 75.4289C18.3008 75.2878 18.6367 75.7716 18.4889 75.4558C18.4721 75.4222 18.3948 75.271 18.3814 75.2643C18.4654 75.3046 18.499 75.607 18.415 75.2979C18.3075 74.8948 18.3881 75.5499 18.4083 75.2374V75.2106V74.9082V70.6922V62.7473V52.3938V41.022V30.0639V20.7991V14.6615V13.2002V12.9382V12.9315C18.3915 12.6291 18.3008 13.2674 18.415 12.8811C18.4822 12.6526 18.4553 12.8307 18.4217 12.8206C18.3612 12.955 18.3713 12.955 18.4284 12.8273C18.4452 12.7937 18.4687 12.7669 18.4889 12.7333C18.5292 12.7601 18.2369 12.9953 18.4284 12.8172C18.4889 12.7568 18.5796 12.6896 18.63 12.6258C18.7476 12.4645 18.368 12.7534 18.5561 12.6929C18.6165 12.6661 18.6972 12.6258 18.7476 12.5854C18.9155 12.4578 18.4452 12.6694 18.6535 12.6258C18.7207 12.609 18.8047 12.5922 18.8719 12.5653C19.0801 12.4914 18.5359 12.572 18.7644 12.572C18.6905 12.572 19.1406 12.5653 18.939 12.5653C20.3903 12.5317 21.855 12.5653 23.3129 12.5653H33.2296H44.3726H52.3008C52.7644 12.5653 53.2246 12.5586 53.6849 12.5653H53.8125C54.1417 12.5653 53.6949 12.572 53.6949 12.5485C53.6949 12.5149 53.8864 12.6224 53.9032 12.609C53.8528 12.6761 53.574 12.4242 53.7957 12.5586C53.836 12.5854 53.8898 12.609 53.9301 12.6325C54.0376 12.6997 53.9906 12.6661 53.7957 12.525C53.7957 12.5317 53.957 12.6761 53.9469 12.6661C54.1316 12.8273 53.8192 12.6661 53.8797 12.5653C53.8797 12.5653 53.9738 12.7165 53.9872 12.74C54.1552 12.9919 53.9133 12.6459 53.9469 12.6224C53.9469 12.6224 53.9973 12.8071 54.0074 12.824C54.1014 13.086 53.9805 12.7635 54.0074 12.7064C53.9906 12.7668 54.0141 12.8811 54.0141 12.9482C54.0208 13.5126 54.0141 14.0636 54.0141 14.6279V18.6861C54.0141 19.5662 54.7867 20.4061 55.6937 20.3657C56.6008 20.3254 57.3734 19.6267 57.3734 18.6861V14.3593C57.3734 13.8486 57.4003 13.3246 57.3734 12.8139C57.2659 10.7982 55.7542 9.23615 53.7117 9.19254C52.2403 9.15895 50.7722 9.19254 49.3109 9.19254H39.1655H27.8548H20.0778C19.6243 9.19254 19.164 9.16567 18.7071 9.19926C16.6243 9.38402 15.0454 10.9965 15.0454 13.1029V17.0166V24.9379V35.3689V46.8912V58.1047V67.477V73.6145V75.0255C15.0454 76.8664 16.2817 78.6133 18.1528 78.9626C18.7643 79.0802 19.379 79.0567 20.0005 79.0567H23.118H33.1559H44.4941H52.4391C52.859 79.0567 53.2856 79.0634 53.7089 79.0567C55.5633 79.0164 57.0751 77.6391 57.3203 75.7981C57.3706 75.3949 57.3706 75.0153 57.3706 74.6156V64.5776V62.0077C57.3706 61.1276 56.598 60.2877 55.691 60.328C54.7672 60.3717 53.9945 61.0671 53.9945 62.0077L53.9941 62.0082Z" fill="#5C2799"/>
<path d="M38.2957 66.7545C38.2957 66.8553 38.2889 66.946 38.2889 67.0502C38.2889 67.2853 38.3561 66.721 38.3057 66.9494C38.2721 67.1174 38.2385 67.2786 38.1882 67.4466C38.1814 67.4802 38.1277 67.6549 38.1142 67.6549C38.0975 67.6549 38.2822 67.3256 38.1478 67.5608C38.0538 67.722 37.9631 67.8799 37.8724 68.0311C37.6977 68.2999 37.9328 67.937 37.9328 67.9572C37.9396 67.974 37.7716 68.142 37.7481 68.1588C37.6977 68.2092 37.6406 68.2596 37.5868 68.3099C37.3584 68.5384 37.6271 68.3503 37.6271 68.2931C37.6271 68.3536 37.3181 68.5014 37.2576 68.535C37.1904 68.5686 37.1232 68.6022 37.0661 68.6358C36.747 68.8206 37.4088 68.5283 37.0594 68.6358C36.9183 68.6761 36.7739 68.7299 36.6227 68.7635C36.5891 68.7702 36.5488 68.7803 36.5152 68.7903C36.364 68.8172 36.364 68.8172 36.5152 68.7903C36.7168 68.8407 36.5555 68.7836 36.448 68.7903C36.3203 68.797 36.0348 68.7299 35.9172 68.7836C35.9508 68.7668 36.3203 68.8575 36.0247 68.7903C35.9172 68.7635 35.8064 68.7399 35.6955 68.7164C35.6216 68.6996 35.5544 68.6761 35.4872 68.6492C35.1782 68.5485 35.588 68.6828 35.5813 68.6895C35.5544 68.7164 35.1681 68.4712 35.1446 68.4544C35.111 68.4275 34.9161 68.3368 34.9161 68.3032C34.9161 68.2864 35.2353 68.5888 35.0001 68.3637C34.9665 68.3301 34.597 68.0009 34.6239 67.9673C34.6306 67.9606 34.859 68.32 34.6843 68.0412C34.644 67.9807 34.6004 67.9236 34.5668 67.8564C34.5264 67.7892 34.2913 67.3256 34.3988 67.5608C34.5063 67.7892 34.4055 67.5608 34.382 67.5003C34.3551 67.4063 34.3215 67.3256 34.298 67.2316C34.2812 67.1577 34.2644 67.0804 34.2476 67.0132C34.1737 66.684 34.2476 67.366 34.2476 67.0065V66.5362C34.2543 66.2406 34.2476 66.5866 34.2207 66.637C34.2476 66.5765 34.2476 66.4757 34.2611 66.4085C34.2947 66.2406 34.3618 66.0894 34.4021 65.9214C34.4525 65.7031 34.2107 66.2842 34.3854 65.9617C34.4257 65.8878 34.4693 65.8005 34.5197 65.7199C34.5701 65.646 34.6205 65.5687 34.6709 65.4847C34.812 65.2663 34.6205 65.5788 34.6104 65.5586C34.5936 65.525 34.8725 65.2731 34.9128 65.2395C34.9061 65.2462 35.074 65.0883 35.0807 65.0984C35.0807 65.0984 34.7515 65.3067 35.0471 65.132C35.2084 65.0379 35.3764 64.9573 35.5242 64.8565C35.7157 64.7389 35.1278 64.9741 35.4839 64.8733C35.5578 64.8565 35.625 64.8229 35.6921 64.8061C35.7526 64.7893 36.1054 64.665 36.1356 64.7053C36.1524 64.7322 35.7593 64.7221 36.0348 64.7322C36.1356 64.7322 36.2263 64.7255 36.3304 64.7255C36.4043 64.7255 36.4917 64.7322 36.5656 64.7322C36.7 64.7389 36.6395 64.7322 36.4043 64.7053C36.4648 64.712 36.5118 64.7221 36.5723 64.7389C36.7571 64.7725 36.9351 64.8666 37.1098 64.8901C37.3181 64.9237 36.8478 64.7288 37.0157 64.8498C37.0997 64.9102 37.2173 64.9506 37.3114 65.011C37.3785 65.0446 37.439 65.0849 37.4961 65.1286C37.8052 65.3201 37.4222 65.0345 37.5028 65.1286C37.6036 65.2462 37.7649 65.4242 37.8892 65.5149C38.0571 65.6426 37.7279 65.2462 37.8287 65.431C37.8791 65.525 37.9564 65.6157 38.0135 65.7064C38.047 65.7736 38.0806 65.8341 38.121 65.8979C38.3057 66.2271 38.0941 65.7703 38.1277 65.9046C38.168 66.0894 38.2453 66.2574 38.2788 66.4421C38.3057 66.5597 38.2453 66.6941 38.2956 66.5026C38.2788 66.3514 38.2688 66.3615 38.2889 66.5093C38.2889 66.5933 38.2956 66.6773 38.2956 66.7546C38.3124 67.6347 39.0616 68.4746 39.9753 68.4342C40.8756 68.3939 41.6718 67.6952 41.655 66.7546C41.6214 64.4433 40.1768 62.4277 38 61.655C35.9675 60.9328 33.5253 61.6046 32.1614 63.2675C30.7168 65.0312 30.4313 67.5608 31.6507 69.5328C32.8669 71.5148 35.1445 72.4386 37.402 72.0187C39.8812 71.5484 41.618 69.2136 41.6516 66.7512C41.6684 65.8711 40.8688 65.0312 39.9719 65.0715C39.0548 65.1152 38.3057 65.814 38.2956 66.7546L38.2957 66.7545Z" fill="#5C2799"/>
</svg>
