<svg width="86" height="87" viewBox="0 0 86 87" fill="none" xmlns="http://www.w3.org/2000/svg">
<path d="M47.5451 51.4284C47.5451 50.4692 48.3228 49.6943 49.2792 49.6943H63.8457V24.2924H32.3557V30.3347C32.3557 31.2911 31.5781 32.0688 30.6216 32.0688C29.6625 32.0688 28.8875 31.2911 28.8875 30.3347V23.8914C28.8957 22.1952 30.2721 20.8242 31.9656 20.8242H64.2629C65.0785 20.8242 65.8615 21.1493 66.4387 21.7264C67.0185 22.3036 67.3409 23.0866 67.3409 23.9049V50.0815C67.3409 51.7831 65.9618 53.1623 64.2629 53.1623H49.2789C48.3224 53.1623 47.5448 52.3846 47.5448 51.4282L47.5451 51.4284ZM72.4052 11.7174H23.8503C21.4036 11.7201 19.4229 13.7035 19.4175 16.1502V31.2286C19.4175 32.185 20.1952 32.9627 21.1516 32.9627C22.1108 32.9627 22.8857 32.185 22.8857 31.2286V16.1502C22.8857 15.6164 23.3193 15.1856 23.8503 15.1856H72.4052C72.6626 15.1856 72.9065 15.2859 73.088 15.4674C73.2696 15.6489 73.3698 15.8928 73.3698 16.1502V57.8311C73.3698 58.3622 72.939 58.793 72.4052 58.793H65.6422C64.6858 58.793 63.9081 59.5707 63.9081 60.5271V63.4697C63.9081 64.1254 63.3798 64.6591 62.7214 64.6619H56.7767C56.121 64.6592 55.5926 64.1254 55.5926 63.4697V60.5271C55.5926 60.0692 55.4084 59.6275 55.0832 59.3024C54.7581 58.9773 54.3164 58.793 53.8585 58.793H48.1143C47.1579 58.793 46.3802 59.5707 46.3802 60.5271C46.3802 61.4863 47.1579 62.2612 48.1143 62.2612H52.1163V63.4697C52.1163 66.041 54.1999 68.1274 56.7713 68.1301H62.716C65.2873 68.1274 67.3709 66.0411 67.3709 63.4697V62.2612H72.3917C73.5704 62.2639 74.7002 61.7979 75.5321 60.9661C76.3666 60.137 76.8353 59.0071 76.838 57.8312V16.1502C76.8353 13.7035 74.8519 11.7201 72.4053 11.7174L72.4052 11.7174ZM47.4341 36.488V36.4853C47.4341 33.9628 48.9569 31.684 51.2871 30.7194C53.62 29.7522 56.3052 30.2859 58.0907 32.0715C59.8763 33.8571 60.4101 36.5422 59.4455 38.8751C58.4782 41.2081 56.2022 42.7281 53.6769 42.7281C50.2358 42.7227 47.4477 39.9291 47.4477 36.4853L47.4341 36.488ZM50.9023 36.488V36.4853C50.9023 37.6098 51.5797 38.6204 52.6148 39.0513C53.6525 39.4794 54.8447 39.2409 55.6387 38.4497C56.4325 37.6559 56.671 36.4609 56.2402 35.4259C55.8121 34.3881 54.7987 33.7107 53.677 33.7107C52.1515 33.7188 50.9159 34.9598 50.9159 36.4853L50.9023 36.488ZM8.90997 44.7465C8.90997 43.6519 8.95061 42.5816 8.95061 41.5629C8.95061 40.6064 9.72825 39.8288 10.6847 39.8288C16.8733 39.8288 21.3821 38.1299 25.2997 34.3149C25.9744 33.6592 27.0474 33.6592 27.7221 34.3149C31.64 38.1299 36.1484 39.8288 42.3371 39.8288C42.795 39.8288 43.2367 40.013 43.5618 40.3382C43.8869 40.6633 44.0712 41.105 44.0712 41.5628C44.0712 42.5817 44.0712 43.6438 44.1118 44.7465C44.3123 55.2136 44.5833 69.5525 27.0767 75.6219C26.7082 75.7492 26.3072 75.7492 25.9387 75.6219C8.4298 69.5525 8.70865 55.2136 8.90911 44.7465L8.90997 44.7465ZM26.5083 72.1537C41.0748 66.8132 40.839 55.138 40.6441 44.8305V43.2698C34.9974 42.9853 30.4482 41.2593 26.5437 37.9212C22.6312 41.2566 18.082 42.9853 12.4434 43.2698V44.8305C12.1778 55.1241 11.9557 66.7995 26.5083 72.1537ZM20.0569 56.3872C21.306 57.108 22.3465 58.1485 23.0672 59.3975C23.3625 59.9123 23.9017 60.2401 24.4951 60.2646H24.571C25.14 60.2646 25.671 59.9882 25.9935 59.5221C27.9118 56.7557 30.3125 54.3551 33.0763 52.4338C33.8647 51.8865 34.0599 50.8081 33.5125 50.0196C32.9679 49.2311 31.8868 49.036 31.0983 49.5834C28.6543 51.2795 26.4623 53.3144 24.5873 55.6256C23.7825 54.7369 22.8451 53.9782 21.8127 53.3767C21.4117 53.1437 20.9376 53.0786 20.4905 53.1951C20.0434 53.3144 19.6641 53.607 19.4338 54.0053C19.2008 54.4063 19.1412 54.8805 19.2604 55.3275C19.3823 55.7719 19.675 56.1512 20.0787 56.3815L20.0569 56.3872Z" fill="#5C2799"/>
</svg>
